<svg width="24" height="24" viewBox="0 0 24 24" fill="none" xmlns="http://www.w3.org/2000/svg">
<path d="M1.65466 9.70194L10.6547 1.52012C11.4175 0.826626 12.5825 0.826627 13.3453 1.52012L22.3453 9.70194C22.7623 10.081 23 10.6183 23 11.1818V20.7971C23 21.9016 22.1046 22.7971 21 22.7971H17.5C16.3954 22.7971 15.5 21.9016 15.5 20.7971V16.7971C15.5 15.6925 14.6046 14.7971 13.5 14.7971H10.5C9.39543 14.7971 8.5 15.6925 8.5 16.7971V20.7971C8.5 21.9016 7.60457 22.7971 6.5 22.7971H3C1.89543 22.7971 1 21.9016 1 20.7971V11.1818C1 10.6183 1.23771 10.081 1.65466 9.70194Z" fill="black" stroke="black" stroke-width="1.55"/>
</svg>
