<svg width="24" height="25" viewBox="0 0 24 25" fill="none" xmlns="http://www.w3.org/2000/svg">
<path d="M1.65466 10.4051L10.6547 2.22324C11.4175 1.52975 12.5825 1.52975 13.3453 2.22325L22.3453 10.4051C22.7623 10.7841 23 11.3215 23 11.8849V21.5002C23 22.6048 22.1046 23.5002 21 23.5002H17.5C16.3954 23.5002 15.5 22.6048 15.5 21.5002V17.5002C15.5 16.3956 14.6046 15.5002 13.5 15.5002H10.5C9.39543 15.5002 8.5 16.3956 8.5 17.5002V21.5002C8.5 22.6048 7.60457 23.5002 6.5 23.5002H3C1.89543 23.5002 1 22.6048 1 21.5002V11.8849C1 11.3215 1.23771 10.7841 1.65466 10.4051Z" stroke="black" stroke-width="1.55"/>
</svg>
