<svg width="23" height="24" viewBox="0 0 23 24" fill="none" xmlns="http://www.w3.org/2000/svg">
<path d="M7.77953 1.38757C7.71382 1.8399 7.54693 2.27158 7.29126 2.65046C7.03559 3.02935 6.69775 3.34568 6.30288 3.57589C5.90802 3.8061 5.4663 3.94427 5.01063 3.98011C4.55497 4.01595 4.09708 3.94853 3.67108 3.78287C3.39258 3.67756 3.08811 3.66205 2.80034 3.73851C2.51258 3.81497 2.25596 3.97956 2.06646 4.20922C1.21506 5.22313 0.546215 6.37721 0.0897572 7.62001C-0.0153702 7.90301 -0.0285051 8.21197 0.0522238 8.50287C0.132953 8.79377 0.303427 9.05178 0.539361 9.24013C0.901876 9.52363 1.19507 9.88596 1.39672 10.2996C1.59836 10.7133 1.70316 11.1675 1.70316 11.6277C1.70316 12.0879 1.59836 12.542 1.39672 12.9557C1.19507 13.3694 0.901876 13.7317 0.539361 14.0152C0.303427 14.2036 0.132953 14.4616 0.0522241 14.7525C-0.0285048 15.0434 -0.0153699 15.3523 0.0897575 15.6354C0.511177 16.7829 1.11305 17.8558 1.87267 18.8136C2.0638 19.055 2.32721 19.2289 2.62432 19.3098C2.92143 19.3907 3.23664 19.3744 3.5238 19.2632C3.96107 19.0843 4.43417 19.0104 4.90517 19.0474C5.37616 19.0844 5.83192 19.2313 6.2359 19.4762C6.63988 19.7212 6.98083 20.0574 7.2314 20.4579C7.48197 20.8584 7.63519 21.3121 7.67875 21.7825C7.71141 22.0879 7.84126 22.3748 8.04919 22.6009C8.25712 22.8269 8.53215 22.9803 8.83377 23.0383C9.54825 23.1826 10.2754 23.2554 11.0043 23.2554C11.6145 23.2564 12.2238 23.2072 12.8259 23.1081C13.1372 23.0588 13.4236 22.9083 13.6408 22.6799C13.858 22.4515 13.9939 22.1579 14.0275 21.8445C14.0726 21.3638 14.2322 20.9008 14.493 20.4944C14.7537 20.088 15.108 19.75 15.5263 19.5086C15.9445 19.2672 16.4144 19.1295 16.8968 19.1071C17.3791 19.0846 17.8599 19.178 18.2987 19.3795C18.5842 19.5113 18.9055 19.544 19.2116 19.4724C19.5178 19.4008 19.7912 19.2289 19.9886 18.9841C20.8245 17.9763 21.4825 16.8333 21.9343 15.6043C21.9887 15.4472 22.0175 15.2823 22.0196 15.116C22.0191 14.8879 21.9639 14.6634 21.8587 14.461C21.7535 14.2587 21.6013 14.0846 21.4149 13.9532C21.0124 13.6769 20.6834 13.3066 20.4564 12.8743C20.2295 12.442 20.1114 11.9609 20.1126 11.4726C20.1132 10.9996 20.2243 10.5332 20.4369 10.1106C20.6495 9.68806 20.9579 9.32097 21.3374 9.03858C21.5899 8.85075 21.7732 8.58469 21.8587 8.28184C21.9442 7.97899 21.9272 7.65636 21.8103 7.3642C21.358 6.24043 20.7329 5.19424 19.9576 4.26348C19.7643 4.02967 19.5018 3.86319 19.2079 3.78798C18.914 3.71276 18.6038 3.73268 18.322 3.84488C17.8903 4.02721 17.4222 4.10671 16.9546 4.0771C16.487 4.0475 16.0326 3.9096 15.6274 3.6743C15.2222 3.43901 14.8773 3.11274 14.6198 2.72127C14.3623 2.32979 14.1993 1.88383 14.1437 1.41858C14.102 1.11689 13.9653 0.836314 13.7535 0.617502C13.5417 0.39869 13.2657 0.253002 12.9655 0.201546C12.3189 0.0770498 11.6626 0.009609 11.0043 2.5466e-07C10.3098 -0.00014834 9.61689 0.0647328 8.93454 0.193795C8.64098 0.246134 8.37138 0.389649 8.16404 0.603951C7.95669 0.818253 7.82215 1.09244 7.77953 1.38757ZM12.6166 1.71314C12.7163 2.39542 12.9687 3.04639 13.355 3.61754C13.7413 4.18869 14.2515 4.66527 14.8476 5.01177C15.4437 5.35827 16.1104 5.56574 16.7979 5.61872C17.4853 5.67169 18.1759 5.5688 18.8181 5.31772C19.4622 6.0864 19.9851 6.94907 20.3684 7.87581C19.8143 8.30226 19.3659 8.85069 19.058 9.47851C18.7501 10.1063 18.5911 10.7967 18.5933 11.4959C18.5972 12.2153 18.7696 12.9239 19.0967 13.5646C19.4238 14.2054 19.8965 14.7606 20.4769 15.1857C20.0951 16.1896 19.5561 17.1263 18.8801 17.9609C18.2299 17.6781 17.5227 17.5512 16.8147 17.5902C16.1068 17.6292 15.4178 17.8331 14.8026 18.1857C14.1807 18.542 13.6508 19.0388 13.2551 19.6364C12.8594 20.234 12.6089 20.9158 12.5236 21.6275C12.0197 21.6897 11.5119 21.7156 11.0043 21.705C10.4033 21.7048 9.80377 21.6477 9.21361 21.5345C9.13228 20.8403 8.89296 20.1741 8.51401 19.5868C8.13507 18.9996 7.62658 18.507 7.0276 18.1469C6.43473 17.7873 5.7674 17.5682 5.07676 17.5064C4.38612 17.4446 3.69049 17.5417 3.04319 17.7903C2.42262 16.9993 1.926 16.1184 1.57035 15.178C2.09591 14.7476 2.51936 14.2058 2.81012 13.5918C3.10089 12.9779 3.25171 12.307 3.25171 11.6277C3.25171 10.9483 3.10089 10.2775 2.81012 9.66352C2.51936 9.04955 2.09591 8.5078 1.57035 8.07736C1.95644 7.05551 2.50913 6.10468 3.20597 5.26346C3.83892 5.49332 4.51469 5.58106 5.18534 5.52047C5.85599 5.45988 6.50509 5.25244 7.08659 4.91286C7.66808 4.57329 8.16772 4.1099 8.55005 3.55558C8.93238 3.00126 9.18804 2.36959 9.29888 1.70539C9.8618 1.60455 10.4324 1.55268 11.0043 1.55036C11.5443 1.55249 12.0834 1.59655 12.6166 1.68214V1.71314Z" fill="black"/>
<path d="M6.35254 11.6277C6.35254 12.5476 6.62532 13.4469 7.13639 14.2117C7.64745 14.9766 8.37385 15.5727 9.22372 15.9248C10.0736 16.2768 11.0088 16.3689 11.911 16.1894C12.8132 16.01 13.6419 15.567 14.2924 14.9165C14.9429 14.2661 15.3858 13.4373 15.5653 12.5351C15.7448 11.6329 15.6527 10.6977 15.3006 9.84785C14.9486 8.99798 14.3525 8.27158 13.5876 7.76051C12.8227 7.24945 11.9235 6.97667 11.0036 6.97667C9.77007 6.97667 8.58705 7.46669 7.71481 8.33893C6.84256 9.21118 6.35254 10.3942 6.35254 11.6277ZM14.1043 11.6277C14.1043 12.241 13.9225 12.8405 13.5818 13.3504C13.241 13.8603 12.7568 14.2577 12.1902 14.4924C11.6236 14.7271 11.0002 14.7885 10.3987 14.6689C9.79721 14.5492 9.24472 14.2539 8.81107 13.8203C8.37743 13.3866 8.08212 12.8341 7.96248 12.2327C7.84283 11.6312 7.90424 11.0077 8.13892 10.4411C8.37361 9.87457 8.77104 9.3903 9.28095 9.04959C9.79086 8.70888 10.3903 8.52702 11.0036 8.52702C11.826 8.52702 12.6146 8.85371 13.1961 9.4352C13.7776 10.0167 14.1043 10.8054 14.1043 11.6277Z" fill="black"/>
</svg>
