<svg width="23" height="24" viewBox="0 0 23 24" fill="none" xmlns="http://www.w3.org/2000/svg">
<path fill-rule="evenodd" clip-rule="evenodd" d="M14.7417 5C14.7417 6.96821 13.2288 8.45 11.5 8.45C9.77119 8.45 8.25833 6.96821 8.25833 5C8.25833 3.03178 9.77119 1.55 11.5 1.55C13.2288 1.55 14.7417 3.03178 14.7417 5ZM16.2917 5C16.2917 7.76142 14.1464 10 11.5 10C8.85364 10 6.70833 7.76142 6.70833 5C6.70833 2.23858 8.85364 0 11.5 0C14.1464 0 16.2917 2.23858 16.2917 5ZM1.55 19.3C1.55 15.7378 4.43776 12.85 8 12.85H15C18.5622 12.85 21.45 15.7378 21.45 19.3C21.45 20.6531 20.3531 21.75 19 21.75H4C2.6469 21.75 1.55 20.6531 1.55 19.3ZM0 19.3C0 14.8817 3.58172 11.3 8 11.3H15C19.4183 11.3 23 14.8817 23 19.3C23 21.5091 21.2091 23.3 19 23.3H4C1.79086 23.3 0 21.5091 0 19.3Z" fill="black"/>
</svg>
